<svg width="71" height="59" viewBox="0 0 71 59" fill="none" xmlns="http://www.w3.org/2000/svg">
<path d="M26.1406 25.125C26.0052 25.1667 25.8906 25.2083 25.7969 25.25C25.7552 28.2708 24.9531 32.0104 23.3906 36.4688C23.6302 36.4688 23.75 36.4948 23.75 36.5469C24.4792 36.5469 25.6094 36.2552 27.1406 35.6719C27.776 35.5885 29.2708 34.8906 31.625 33.5781C33.9896 32.2656 35.1719 30.776 35.1719 29.1094V28.2344C35.1719 27.9531 34.8333 27.5521 34.1562 27.0312C33.4688 26.6042 32.8021 26.3438 32.1562 26.25C29.3333 25.6042 27.3281 25.2292 26.1406 25.125ZM26.3281 23.2656C27.3385 23.276 28.2292 23.3229 29 23.4062C29.4896 23.3021 30.1042 23.026 30.8438 22.5781C31.3125 22.2865 31.7865 21.9062 32.2656 21.4375C34.9219 19.5625 36.25 17.7292 36.25 15.9375C36.0312 14.9167 35.5104 14.1875 34.6875 13.75C34 13.5312 33.4115 13.3698 32.9219 13.2656C30.2344 13.6823 28.5677 13.9948 27.9219 14.2031C27.9219 15.9115 27.3906 18.9323 26.3281 23.2656ZM19.4375 35.5781V35.4844C21.3229 27.8594 22.8958 21.8958 24.1562 17.5938L24.7812 14.9219H24.3906C22.7656 15.2865 21.7708 15.4688 21.4062 15.4688C20.2292 15.6146 19.4948 15.6875 19.2031 15.6875C18.026 15.5104 17.1719 15.1927 16.6406 14.7344C16.099 14.276 15.7865 13.8698 15.7031 13.5156C15.6198 13.151 16.0208 12.7656 16.9062 12.3594C17.7812 11.9531 19.651 11.3646 22.5156 10.5938C24.2448 10.3333 25.8438 10.2031 27.3125 10.2031H28.2344C30.8385 10.2031 32.625 10.4635 33.5938 10.9844C35.2188 11.3802 36.8385 12.6094 38.4531 14.6719C38.8177 15.6823 39 16.3698 39 16.7344C39 17.599 38.5312 18.7708 37.5938 20.25C35.8646 21.8021 34.0052 22.9062 32.0156 23.5625L31.3281 23.7656C31.6406 23.8385 31.9167 23.9323 32.1562 24.0469C34.0625 24.4427 35.9531 25.6771 37.8281 27.75C38.2448 28.75 38.4531 29.4323 38.4531 29.7969C38.349 31.0156 37.5469 32.2969 36.0469 33.6406C34.5573 34.974 31.526 36.3229 26.9531 37.6875C25.1927 38.1979 23.7917 38.5 22.75 38.5938C20.5312 38.4896 19.4271 37.4844 19.4375 35.5781ZM44.6406 8.0625C47.3906 8.0625 49.3281 8.89583 50.4531 10.5625C50.6823 10.9271 50.7969 11.2604 50.7969 11.5625V13.875C50.7969 16.7917 49.375 21.9844 46.5312 29.4531C45.1562 32.9427 44.3646 35.2344 44.1562 36.3281V36.9844C44.1562 37.1406 44.3177 37.3021 44.6406 37.4688H46.1562C48.8333 36.8333 51.651 36.0052 54.6094 34.9844H55.0938C55.3229 35.0156 55.4375 35.1302 55.4375 35.3281V35.7969C53.1979 37.0885 48.1094 39.0312 40.1719 41.625H39.5C38.8438 41.625 38.2708 41.3594 37.7812 40.8281C37.2917 40.3073 37.3073 39.2448 37.8281 37.6406C43.3802 22.1719 46.1562 13.599 46.1562 11.9219C46.1562 10.2344 45.651 9 44.6406 8.21875V8.0625Z" fill="#FF5757"/>
<path d="M6.03873 48.872C5.74273 48.72 5.41873 48.588 5.06673 48.476C4.71473 48.364 4.37073 48.308 4.03473 48.308C3.57073 48.308 3.19873 48.416 2.91873 48.632C2.64673 48.848 2.51073 49.136 2.51073 49.496C2.51073 49.768 2.59873 50 2.77473 50.192C2.95073 50.376 3.18273 50.536 3.47073 50.672C3.75873 50.808 4.05873 50.936 4.37073 51.056C4.64273 51.16 4.91073 51.276 5.17473 51.404C5.43873 51.532 5.67473 51.692 5.88273 51.884C6.09873 52.076 6.26673 52.312 6.38673 52.592C6.51473 52.872 6.57873 53.22 6.57873 53.636C6.57873 54.092 6.46273 54.508 6.23073 54.884C6.00673 55.26 5.68273 55.556 5.25873 55.772C4.83473 55.988 4.33073 56.096 3.74673 56.096C3.36273 56.096 2.99473 56.052 2.64273 55.964C2.29873 55.876 1.97873 55.764 1.68273 55.628C1.38673 55.484 1.12273 55.336 0.890734 55.184L1.40673 54.272C1.59873 54.408 1.81873 54.54 2.06673 54.668C2.31473 54.788 2.57473 54.888 2.84673 54.968C3.11873 55.04 3.38273 55.076 3.63873 55.076C3.91073 55.076 4.17873 55.028 4.44273 54.932C4.71473 54.828 4.93873 54.672 5.11473 54.464C5.29073 54.256 5.37873 53.98 5.37873 53.636C5.37873 53.34 5.29873 53.096 5.13873 52.904C4.98673 52.704 4.78273 52.536 4.52673 52.4C4.27073 52.256 3.99873 52.128 3.71073 52.016C3.43873 51.912 3.16273 51.8 2.88273 51.68C2.60273 51.552 2.34273 51.4 2.10273 51.224C1.86273 51.04 1.67073 50.816 1.52673 50.552C1.38273 50.288 1.31073 49.968 1.31073 49.592C1.31073 49.136 1.41873 48.74 1.63473 48.404C1.85873 48.06 2.16273 47.792 2.54673 47.6C2.93073 47.4 3.37073 47.292 3.86673 47.276C4.42673 47.276 4.91873 47.344 5.34273 47.48C5.77473 47.616 6.15473 47.784 6.48273 47.984L6.03873 48.872ZM9.83111 56.192C9.38311 56.192 9.01111 56.056 8.71511 55.784C8.42711 55.504 8.27511 55.144 8.25911 54.704V51.032H9.37511V54.308C9.39111 54.58 9.46711 54.8 9.60311 54.968C9.74711 55.136 9.97111 55.224 10.2751 55.232C10.5551 55.232 10.8031 55.152 11.0191 54.992C11.2431 54.824 11.4231 54.6 11.5591 54.32C11.6951 54.032 11.7631 53.708 11.7631 53.348V51.032H12.8791V56H11.8591L11.7631 54.776L11.8231 54.992C11.7271 55.224 11.5791 55.432 11.3791 55.616C11.1871 55.792 10.9591 55.932 10.6951 56.036C10.4311 56.14 10.1431 56.192 9.83111 56.192ZM17.7379 56.12C17.3619 56.12 16.9979 56.032 16.6459 55.856C16.3019 55.68 16.0339 55.444 15.8419 55.148L15.9139 54.8V58.388H14.8099V50.96H15.7699L15.9259 52.232L15.8059 51.884C16.0459 51.58 16.3499 51.328 16.7179 51.128C17.0859 50.928 17.4979 50.828 17.9539 50.828C18.4179 50.828 18.8339 50.94 19.2019 51.164C19.5779 51.388 19.8739 51.7 20.0899 52.1C20.3059 52.5 20.4139 52.968 20.4139 53.504C20.4139 54.04 20.2979 54.504 20.0659 54.896C19.8339 55.288 19.5139 55.592 19.1059 55.808C18.7059 56.016 18.2499 56.12 17.7379 56.12ZM17.5219 55.232C17.8419 55.232 18.1339 55.16 18.3979 55.016C18.6699 54.864 18.8859 54.66 19.0459 54.404C19.2059 54.14 19.2859 53.844 19.2859 53.516C19.2859 53.18 19.2099 52.884 19.0579 52.628C18.9059 52.364 18.7019 52.156 18.4459 52.004C18.1979 51.852 17.9179 51.776 17.6059 51.776C17.3179 51.776 17.0579 51.832 16.8259 51.944C16.5939 52.056 16.4019 52.212 16.2499 52.412C16.0979 52.604 15.9899 52.828 15.9259 53.084V53.912C15.9659 54.168 16.0619 54.396 16.2139 54.596C16.3659 54.796 16.5539 54.952 16.7779 55.064C17.0099 55.176 17.2579 55.232 17.5219 55.232ZM24.2272 56.12C23.6592 56.12 23.1712 56.008 22.7632 55.784C22.3552 55.552 22.0392 55.24 21.8152 54.848C21.5992 54.448 21.4912 53.992 21.4912 53.48C21.4912 52.992 21.6152 52.548 21.8632 52.148C22.1112 51.748 22.4432 51.428 22.8592 51.188C23.2752 50.948 23.7392 50.828 24.2512 50.828C24.9072 50.828 25.4512 51.02 25.8832 51.404C26.3152 51.788 26.6072 52.316 26.7592 52.988L22.6672 54.428L22.4032 53.768L25.7632 52.544L25.5232 52.7C25.4272 52.436 25.2672 52.208 25.0432 52.016C24.8192 51.816 24.5272 51.716 24.1672 51.716C23.8632 51.716 23.5912 51.792 23.3512 51.944C23.1112 52.088 22.9232 52.288 22.7872 52.544C22.6512 52.8 22.5832 53.092 22.5832 53.42C22.5832 53.764 22.6552 54.068 22.7992 54.332C22.9432 54.588 23.1392 54.792 23.3872 54.944C23.6432 55.088 23.9312 55.16 24.2512 55.16C24.4672 55.16 24.6752 55.12 24.8752 55.04C25.0832 54.96 25.2752 54.856 25.4512 54.728L25.9672 55.556C25.7192 55.724 25.4392 55.86 25.1272 55.964C24.8232 56.068 24.5232 56.12 24.2272 56.12ZM29.1535 51.032L29.2615 52.472L29.2015 52.28C29.3295 51.976 29.5135 51.72 29.7535 51.512C30.0015 51.296 30.2575 51.132 30.5215 51.02C30.7935 50.9 31.0295 50.84 31.2295 50.84L31.1695 51.944C30.7935 51.92 30.4615 51.992 30.1735 52.16C29.8935 52.328 29.6695 52.552 29.5015 52.832C29.3415 53.112 29.2615 53.412 29.2615 53.732V56H28.1575V51.032H29.1535ZM32.9453 56V47.048H32.9573L37.5053 53.504L37.0133 53.408L41.5493 47.048H41.5733V56H40.4213V49.688L40.4933 50.276L37.2173 54.908H37.1933L33.8693 50.276L34.0733 49.736V56H32.9453ZM45.8544 56.12C45.3904 56.12 44.9664 56.02 44.5824 55.82C44.2064 55.62 43.9064 55.328 43.6824 54.944C43.4664 54.552 43.3584 54.076 43.3584 53.516C43.3584 52.964 43.4744 52.488 43.7064 52.088C43.9384 51.68 44.2464 51.368 44.6304 51.152C45.0224 50.936 45.4504 50.828 45.9144 50.828C46.3784 50.828 46.7704 50.936 47.0904 51.152C47.4104 51.36 47.6544 51.608 47.8224 51.896L47.7504 52.088L47.8584 51.032H48.8904V56H47.7744V54.704L47.8944 54.992C47.8624 55.072 47.7904 55.176 47.6784 55.304C47.5744 55.424 47.4304 55.548 47.2464 55.676C47.0704 55.804 46.8664 55.912 46.6344 56C46.4024 56.08 46.1424 56.12 45.8544 56.12ZM46.1544 55.196C46.4344 55.196 46.6864 55.144 46.9104 55.04C47.1344 54.936 47.3184 54.792 47.4624 54.608C47.6144 54.416 47.7184 54.188 47.7744 53.924V52.952C47.7104 52.712 47.5984 52.504 47.4384 52.328C47.2784 52.144 47.0864 52.004 46.8624 51.908C46.6384 51.804 46.3904 51.752 46.1184 51.752C45.8224 51.752 45.5504 51.824 45.3024 51.968C45.0544 52.112 44.8544 52.312 44.7024 52.568C44.5584 52.824 44.4864 53.124 44.4864 53.468C44.4864 53.788 44.5624 54.08 44.7144 54.344C44.8664 54.608 45.0704 54.816 45.3264 54.968C45.5824 55.12 45.8584 55.196 46.1544 55.196ZM51.8176 51.032L51.9256 52.472L51.8656 52.28C51.9936 51.976 52.1776 51.72 52.4176 51.512C52.6656 51.296 52.9216 51.132 53.1856 51.02C53.4576 50.9 53.6936 50.84 53.8936 50.84L53.8336 51.944C53.4576 51.92 53.1256 51.992 52.8376 52.16C52.5576 52.328 52.3336 52.552 52.1656 52.832C52.0056 53.112 51.9256 53.412 51.9256 53.732V56H50.8216V51.032H51.8176ZM55.3333 56V46.712H56.4493V56H55.3333ZM57.6493 52.7L59.9293 56H58.6213L56.9053 53.324L57.6493 52.7ZM56.1013 54.416L55.9933 53.348L59.0053 50.924L59.6893 51.512L56.1013 54.416ZM63.4264 56.12C62.8584 56.12 62.3704 56.008 61.9624 55.784C61.5544 55.552 61.2384 55.24 61.0144 54.848C60.7984 54.448 60.6904 53.992 60.6904 53.48C60.6904 52.992 60.8144 52.548 61.0624 52.148C61.3104 51.748 61.6424 51.428 62.0584 51.188C62.4744 50.948 62.9384 50.828 63.4504 50.828C64.1064 50.828 64.6504 51.02 65.0824 51.404C65.5144 51.788 65.8064 52.316 65.9584 52.988L61.8664 54.428L61.6024 53.768L64.9624 52.544L64.7224 52.7C64.6264 52.436 64.4664 52.208 64.2424 52.016C64.0184 51.816 63.7264 51.716 63.3664 51.716C63.0624 51.716 62.7904 51.792 62.5504 51.944C62.3104 52.088 62.1224 52.288 61.9864 52.544C61.8504 52.8 61.7824 53.092 61.7824 53.42C61.7824 53.764 61.8544 54.068 61.9984 54.332C62.1424 54.588 62.3384 54.792 62.5864 54.944C62.8424 55.088 63.1304 55.16 63.4504 55.16C63.6664 55.16 63.8744 55.12 64.0744 55.04C64.2824 54.96 64.4744 54.856 64.6504 54.728L65.1664 55.556C64.9184 55.724 64.6384 55.86 64.3264 55.964C64.0224 56.068 63.7224 56.12 63.4264 56.12ZM67.8368 48.848H68.9528V51.056H70.3208V51.932H68.9528V56H67.8368V51.932H66.9248V51.056H67.8368V48.848Z" fill="#FF914D"/>
</svg>
